<svg width="12" height="24" viewBox="0 0 12 24" fill="none" xmlns="http://www.w3.org/2000/svg">
<g id="Frame 3">
<path id="X" d="M11.088 16.668C11.244 16.836 11.322 17.022 11.322 17.226C11.322 17.454 11.232 17.658 11.052 17.838C10.872 18.006 10.668 18.09 10.44 18.09C10.188 18.09 9.97195 17.982 9.79195 17.766L5.88595 12.852L1.96195 17.766C1.78195 17.982 1.57195 18.09 1.33195 18.09C1.10395 18.09 0.899951 18.006 0.719951 17.838C0.539951 17.658 0.449951 17.454 0.449951 17.226C0.449951 17.034 0.521951 16.848 0.665951 16.668L4.80595 11.538L0.863951 6.64197C0.719951 6.48597 0.647951 6.29997 0.647951 6.08397C0.647951 5.85597 0.731951 5.65797 0.899951 5.48997C1.07995 5.30997 1.28395 5.21997 1.51195 5.21997C1.76395 5.21997 1.97995 5.32797 2.15995 5.54397L5.88595 10.242L9.61195 5.54397C9.77995 5.32797 9.99595 5.21997 10.26 5.21997C10.488 5.21997 10.692 5.30997 10.872 5.48997C11.052 5.65797 11.142 5.85597 11.142 6.08397C11.142 6.28797 11.064 6.47397 10.908 6.64197L6.96595 11.538L11.088 16.668Z" fill="white" fill-opacity="0.5"/>
</g>
</svg>
